<svg id="Illustration" xmlns="http://www.w3.org/2000/svg" viewBox="0 0 463.95 424.85"><defs><style>.cls-1{fill:none;}.cls-1,.cls-2{stroke:#0a0a0a;stroke-linecap:round;stroke-linejoin:round;stroke-width:2px;}.cls-2,.cls-3{fill:#0a0a0a;}</style></defs><path class="cls-1" d="M174.58,314.43c-55.44,8.67-47.47-32.92-24.25-72.42S202,207,202,207a8.36,8.36,0,0,0-1.39-4.29c-2.16-3.07-1.46-6.3,1.39-5.85a92.26,92.26,0,0,0,12.13.78s15.59,10,25.3-1.73,2.39-28.58,2.39-30,19.12-1.31,18-2.51c0,0-35.47-43.5-54.35-33.53-11.87,6.26-5.4,27.55-5.4,27.55s-3.38-4.85-8.14-2.25c-5.52,3-.35,12.13,8.14,10.74"/><line class="cls-1" x1="200.03" y1="165.95" x2="201.96" y2="196.87"/><path class="cls-1" d="M237.71,197.68s1.16,5.43-1.27,9.16c-.83,1.27,19.34,6.63,38.15,39.43"/><path class="cls-1" d="M196.13,160.93a3,3,0,0,1,3.47,1.38"/><path class="cls-1" d="M206.47,199.13a9.53,9.53,0,0,0,.95,3.55"/><path class="cls-1" d="M216.77,200s.31,1.53.52,3.07"/><path class="cls-1" d="M226.48,201.81a22.85,22.85,0,0,1,0,2.43"/><path class="cls-1" d="M233.23,200.58a5,5,0,0,1,0,2.46"/><path class="cls-2" d="M200,157.46s5.55-.55,6.74-14.39c0,0,4.2-13.34,8.7,2.6l20.95-4.81s-2.58-14.25-18-16.32-25.82,8-23.56,21.65C196.26,154.68,200,157.46,200,157.46Z"/><path class="cls-2" d="M203.56,129.89s-3.15-13.07-18-10.6C172.7,121.43,171,135.38,174.49,146c4.65,14-4.25,20-4.25,20s13.46-1.6,15.67-15.38c1.66-10.31,2.3-19.95,10.71-17.43"/><path class="cls-1" d="M220.56,158.63s.67,3.78,0,4.33-.87-3.08-.45-3.91"/><path class="cls-1" d="M232.8,157.54s.67,3.78,0,4.33-.88-3.08-.46-3.91"/><path class="cls-1" d="M220.85,179.27a10.92,10.92,0,0,1,6.94.78s.66,5.08-3.57,3.67c-1.67-.56-2.75-2.46-3.37-4.45-.88-2.75-.9-5.63-.43-5.19,4.24,3.9,7.92,1.94,7.92,1.94"/><path class="cls-1" d="M189,241.84s5.14,3.89,2,5.71-14.29,24.69-16.37,30.67-8.84,10.92-13.51,9.36,1.84-8.55,71,4.16"/><path class="cls-1" d="M179.44,313.74l52.37-1.29a4.91,4.91,0,0,0,4.64-3.76L250,252.13a4.5,4.5,0,0,1,4.48-3.45l74.78,1.7a2.13,2.13,0,0,1,2,2.71l-17.05,60.57a4.86,4.86,0,0,1-4.67,3.55H178.05"/><path class="cls-1" d="M253.25,252.75,240.4,312.47a6,6,0,0,1-5.86,4.74H228"/><ellipse class="cls-1" cx="292.1" cy="283.7" rx="6.02" ry="4.49" transform="matrix(0.58, -0.81, 0.81, 0.58, -108.58, 356.27)"/><path class="cls-1" d="M253.25,228.06s-.35,3.12,4.33,9.88,4.68,10.74,4.68,10.74"/><path class="cls-1" d="M191,243.81s3.42,2.36,5.09-2"/><path class="cls-1" d="M215.13,114.32v-6.67"/><line class="cls-1" x1="203.56" y1="116.66" x2="200.03" y2="113.03"/><path class="cls-1" d="M229.72,119.05s2.45-3.62,3.51-4.21"/><path class="cls-3" d="M227.08,176.41a13.24,13.24,0,0,0,0,3.33s-3.31-1.33-6-.51a5.83,5.83,0,0,1-.83-2.49c-.14-1.46-.45-3.18.16-2.66S224.06,177.39,227.08,176.41Z"/></svg>