<svg xmlns="http://www.w3.org/2000/svg" version="1.1" xmlns:xlink="http://www.w3.org/1999/xlink" xmlns:svgjs="http://svgjs.dev/svgjs" width="1366" height="768" preserveAspectRatio="none" viewBox="0 0 1366 768"><g mask="url(&quot;#SvgjsMask1036&quot;)" fill="none"><path d="M1434.2999999999997 768L0 768 L0 549.28Q38.54 519.52, 68.3 558.07Q77.56 453.49, 182.13333333333333 462.75Q214.14 380.92, 295.96666666666664 412.93Q324.9 373.56, 364.26666666666665 402.5Q408.66 378.6, 432.56666666666666 422.99Q534.07 456.19, 500.8666666666667 557.7Q486.08 474.61, 569.1666666666666 459.82Q613.59 390.41, 683 434.84Q721.67 359.67, 796.8333333333334 398.34Q842.17 375.38, 865.1333333333333 420.72Q949.37 436.66, 933.4333333333333 520.89Q928.99 402.62, 1047.2666666666667 398.18Q1126.56 409.17, 1115.5666666666666 488.46Q1159.22 463.81, 1183.8666666666666 507.47Q1235.75 491.06, 1252.1666666666665 542.94Q1253.71 476.18, 1320.4666666666665 477.73Q1336.41 379.84, 1434.2999999999997 395.79z" fill="rgba(255, 255, 255, 1)"></path><path d="M1479.833333333333 768L0 768 L0 620.14Q55.05 561.35, 113.83333333333333 616.4Q159.28 548.01, 227.66666666666666 593.46Q223.82 521.31, 295.96666666666664 517.46Q365 472.66, 409.79999999999995 541.69Q528.17 546.23, 523.6333333333333 664.6Q515.71 588.38, 591.9333333333333 580.45Q640.03 514.71, 705.7666666666667 562.81Q779.92 523.13, 819.6 597.28Q874.88 584.26, 887.9 639.55Q967.27 605.09, 1001.7333333333333 684.46Q1043.3 612.19, 1115.5666666666666 653.75Q1156.19 626.07, 1183.8666666666666 666.7Q1249.88 618.88, 1297.6999999999998 684.9Q1309.15 628.05, 1365.9999999999998 639.51Q1414.64 574.32, 1479.833333333333 622.96z" fill="rgba(217, 114, 114, 1)"></path><path d="M1388.7666666666664 768L0 768 L0 796.9Q-23.48 705.13, 68.3 681.65Q104.93 604.45, 182.13333333333333 641.08Q229.88 620.53, 250.43333333333334 668.28Q370.73 674.74, 364.26666666666665 795.04Q356.62 719.1, 432.56666666666666 711.45Q462.33 627.38, 546.4 657.14Q595.53 592.44, 660.2333333333333 641.57Q721.57 634.61, 728.5333333333333 695.94Q797.6 651.17, 842.3666666666667 720.23Q908.53 718.1, 910.6666666666666 784.26Q926.1 685.86, 1024.5 701.29Q1066.34 629.29, 1138.3333333333333 671.13Q1165.12 629.62, 1206.6333333333332 656.41Q1282.06 618, 1320.4666666666665 693.43Q1378.33 683, 1388.7666666666664 740.86z" fill="rgba(255, 255, 255, 1)"></path></g><defs><mask id="SvgjsMask1036"><rect width="1366" height="768" fill="#ffffff"></rect></mask></defs></svg>