<svg xmlns="http://www.w3.org/2000/svg" version="1.1" xmlns:xlink="http://www.w3.org/1999/xlink" xmlns:svgjs="http://svgjs.dev/svgjs" width="1366" height="768" preserveAspectRatio="none" viewBox="0 0 1366 768"><g mask="url(&quot;#SvgjsMask1071&quot;)" fill="none"><rect width="1366" height="768" x="0" y="0" fill="rgba(251, 252, 255, 1)"></rect><path d="M1479.833333333333 768L0 768 L0 303.27Q35.94 225.37, 113.83333333333333 261.31Q142.87 222.05, 182.13333333333333 251.08Q270.88 226, 295.96666666666664 314.75Q302.87 207.82, 409.79999999999995 214.73Q415.78 152.41, 478.09999999999997 158.39Q524.2 136.19, 546.4 182.29Q694.28 216.34, 660.2333333333333 364.22Q657.6 293.29, 728.5333333333333 290.66Q740.3 234.13, 796.8333333333333 245.89Q799.41 180.17, 865.1333333333332 182.75Q910.82 114.61, 978.9666666666666 160.3Q1041.05 108.55, 1092.8 170.64Q1144.24 153.79, 1161.1 205.23Q1172.73 148.56, 1229.3999999999999 160.2Q1271.9 134.41, 1297.6999999999998 176.91Q1358.94 169.85, 1365.9999999999998 231.09Q1469.02 220.27, 1479.833333333333 323.29z" fill="rgba(244, 248, 255, 1)"></path><path d="M1388.7666666666664 768L0 768 L0 329.21Q51.53 312.44, 68.3 363.97Q144.76 372.13, 136.6 448.59Q128.22 326.37, 250.43333333333334 317.99Q303.02 256.75, 364.26666666666665 309.34Q465.22 296.46, 478.09999999999997 397.41Q546.14 351.61, 591.9333333333333 419.65Q657.93 371.81, 705.7666666666667 437.81Q786.17 404.38, 819.6 484.78Q843.61 394.96, 933.4333333333334 418.97Q980.09 351.79, 1047.2666666666667 398.44Q1136.2 373.54, 1161.1 462.48Q1168.34 355.88, 1274.9333333333332 363.12Q1326.09 300.44, 1388.7666666666664 351.6z" fill="rgba(255, 0, 0, 1)"></path><path d="M1434.2999999999997 768L0 768 L0 496.38Q126.29 508.84, 113.83333333333333 635.13Q176.21 583.67, 227.66666666666666 646.05Q247.32 551.87, 341.5 571.53Q384.73 546.46, 409.8 589.69Q426.14 537.73, 478.1 554.08Q513.75 475.9, 591.9333333333334 511.55Q638.91 444.69, 705.7666666666668 491.66Q728.71 446.3, 774.0666666666667 469.24Q887.88 514.75, 842.3666666666667 628.57Q890.56 608.46, 910.6666666666666 656.65Q923.49 601.18, 978.9666666666666 614Q973.68 540.42, 1047.2666666666667 535.13Q1055.42 474.98, 1115.5666666666666 483.13Q1142.56 441.82, 1183.8666666666666 468.82Q1232.69 449.35, 1252.1666666666665 498.17Q1372.95 550.65, 1320.4666666666665 671.43Q1274.09 511.22, 1434.2999999999997 464.85z" fill="rgba(233, 243, 255, 1)"></path><path d="M1479.833333333333 768L0 768 L0 747.75Q77.64 711.55, 113.83333333333333 789.19Q122.35 683.87, 227.66666666666666 692.39Q253.87 604.76, 341.5 630.97Q416.01 591.64, 455.3333333333333 666.15Q503.74 600.72, 569.1666666666666 649.13Q588.46 600.12, 637.4666666666666 619.41Q721.99 590.1, 751.3 674.63Q857.91 712.94, 819.5999999999999 819.55Q752.67 684.32, 887.8999999999999 617.39Q1023.16 638.82, 1001.7333333333332 774.08Q1070.17 728.69, 1115.5666666666666 797.13Q1155.75 769.01, 1183.8666666666666 809.2Q1191.85 703.35, 1297.6999999999998 711.33Q1298.45 643.78, 1365.9999999999998 644.54Q1413.16 577.86, 1479.833333333333 625.02z" fill="white"></path></g><defs><mask id="SvgjsMask1071"><rect width="1366" height="768" fill="#ffffff"></rect></mask></defs></svg>