<svg xmlns="http://www.w3.org/2000/svg" version="1.1" xmlns:xlink="http://www.w3.org/1999/xlink" xmlns:svgjs="http://svgjs.dev/svgjs" width="699" height="851" preserveAspectRatio="none" viewBox="0 0 699 851"><g mask="url(&quot;#SvgjsMask1171&quot;)" fill="none"><rect width="699" height="851" x="0" y="0" fill="rgba(251, 252, 255, 1)"></rect><path d="M710.6500000000001 851L0 851 L0 305.7Q-31.62 239.13, 34.95 207.51Q46.58 160.89, 93.2 172.52Q128.94 150.01, 151.45 185.75Q183.52 182.87, 186.39999999999998 214.94Q245.96 239.55, 221.34999999999997 299.11Q184.08 226.9, 256.29999999999995 189.63Q368.3 243.38, 314.54999999999995 355.39Q254.95 237.54, 372.79999999999995 177.94Q461.92 208.81, 431.04999999999995 297.94Q471.41 280.06, 489.29999999999995 320.42Q536.62 309.49, 547.55 356.81Q583.98 358.29, 582.5 394.73Q527.23 281.21, 640.75 225.94Q707.63 257.87, 675.7 324.74Q631.72 245.81, 710.6500000000001 201.83z" fill="rgba(244, 248, 255, 1)"></path><path d="M745.6 851L0 851 L0 456.95Q-1.81 396.88, 58.25 395.07Q56.61 358.48, 93.2 356.84Q115.93 321.32, 151.45 344.05Q180.66 338.31, 186.39999999999998 367.53Q221.09 367.27, 221.34999999999997 401.95Q259.37 405.02, 256.29999999999995 443.04Q306.11 434.61, 314.54999999999995 484.42Q325.69 460.62, 349.49999999999994 471.76Q368.47 432.49, 407.74999999999994 451.46Q428.92 414.38, 465.99999999999994 435.56Q464.6 399.21, 500.94999999999993 397.81Q519.62 358.24, 559.1999999999999 376.91Q561.79 344.55, 594.15 347.14Q614.93 332.97, 629.1 353.76Q688.07 354.48, 687.35 413.44Q755.38 423.23, 745.6 491.26z" fill="rgba(255, 0, 0, 1)"></path><path d="M710.6500000000001 851L0 851 L0 623.9Q-27.78 561.16, 34.95 533.38Q119.81 559.99, 93.2 644.84Q75 591.69, 128.15 573.49Q118.43 528.82, 163.10000000000002 519.1Q271.66 592.71, 198.05 701.26Q175.36 620.32, 256.3 597.62Q268.44 574.82, 291.25 586.96Q289.09 526.55, 349.5 524.38Q360.75 500.68, 384.45 511.93Q445.35 537.89, 419.4 598.79Q472.09 616.52, 454.34999999999997 669.21Q500.27 656.88, 512.5999999999999 702.8Q556.88 688.83, 570.8499999999999 733.1Q595.51 722.81, 605.8 747.47Q606.27 713, 640.75 713.47Q590.88 628.64, 675.7 578.77Q776.06 644.17, 710.6500000000001 744.53z" fill="rgba(233, 243, 255, 1)"></path><path d="M699.0000000000001 851L0 851 L0 778.38Q56.41 776.54, 58.25 832.94Q58.89 798.63, 93.2 799.27Q68.16 739.27, 128.15 714.23Q134.46 685.59, 163.10000000000002 691.91Q197.51 668.07, 221.35000000000002 702.47Q265.8 688.67, 279.6 733.13Q314.37 732.95, 314.55 767.71Q369.02 787.23, 349.5 841.7Q395.75 829.71, 407.75 875.96Q446.61 879.87, 442.7 918.73Q360.72 801.81, 477.65 719.83Q577.87 761.8, 535.9 862.02Q495.78 786.95, 570.85 746.83Q671.94 789.67, 629.1 890.77Q547.31 774.03, 664.0500000000001 692.24Q792.19 785.42, 699.0000000000001 913.56z" fill="white"></path></g><defs><mask id="SvgjsMask1171"><rect width="699" height="851" fill="#ffffff"></rect></mask></defs></svg>